Coordinates
version=1
nRows=14
nColumns=36
inDegrees=yes

Units are S.I. units (second, meters, Newtons, ...)
If the header above contains a line with 'inDegrees', this indicates whether rotational values are in degrees (yes) or radians (no).

endheader
time	pelvis_tilt	pelvis_list	pelvis_rotation	pelvis_tx	pelvis_ty	pelvis_tz	hip_flexion_r	hip_adduction_r	hip_rotation_r	knee_angle_r	knee_angle_r_beta	ankle_angle_r	subtalar_angle_r	mtp_angle_r	hip_flexion_l	hip_adduction_l	hip_rotation_l	knee_angle_l	knee_angle_l_beta	ankle_angle_l	subtalar_angle_l	mtp_angle_l	lumbar_extension	lumbar_bending	lumbar_rotation	arm_flex_r	arm_add_r	arm_rot_r	elbow_flex_r	pro_sup_r	arm_flex_l	arm_add_l	arm_rot_l	elbow_flex_l	pro_sup_l
     29.76666670	      3.76379543	      0.70072554	     -1.71218465	      0.74748043	      1.03647923	      0.70623558	     18.15202650	     -1.79546476	     -0.67402298	      4.97855575	      0.08689219	      1.11274576	     -0.68203899	     -7.49999987	    -12.57323005	      2.46789622	      2.25249687	     11.14471410	      0.19451196	     17.58836542	     -2.28911031	     -7.49999987	    -15.50721074	     -2.39859671	      4.22168464	     -4.07806362	    -12.66302130	     -4.19033509	     29.12124987	     96.66260820	     21.65508752	    -17.46483556	     21.57195738	     29.39857176	     91.48214963
     29.78333330	      3.83114724	      0.31409300	     -1.59066231	      0.74915076	      1.03488908	      0.70767197	     17.66822964	     -1.21285896	     -0.84826415	      5.53724722	      0.09664320	      0.76081006	     -0.70293741	     -7.49999987	    -13.41690759	      1.96806859	      1.70445530	     11.50013890	      0.20071529	     18.29684541	     -1.67497357	     -7.49999987	    -15.13249051	     -1.75458140	      3.75183960	     -2.75198210	    -13.10035309	     -1.80829857	     27.44805791	     96.29984516	     20.92262321	    -17.24368958	     20.87389006	     29.38452758	     90.68999728
     29.80000000	      3.86164134	     -0.10700533	     -1.48639730	      0.75037587	      1.03322291	      0.70782825	     17.24911532	     -0.59682749	     -1.00220080	      6.59308585	      0.11507106	      0.08499419	     -1.04579663	     -7.49999987	    -14.14126443	      1.41555747	      1.17325224	     11.97291881	      0.20896685	     18.76505226	     -1.08096559	     -7.49999987	    -14.79334317	     -1.07706581	      3.57711521	     -1.71080281	    -13.42205376	     -0.49176051	     26.24476877	     96.09983281	     20.34682458	    -16.85403691	     20.23874847	     29.09490318	     90.59155151
     29.81666670	      3.98974029	     -0.52877988	     -1.45410055	      0.75034080	      1.03231062	      0.70726968	     16.82133698	     -0.01283026	     -1.07247954	      7.90300360	      0.13793343	     -0.74163901	     -1.65731299	     -7.49999987	    -14.79206053	      0.87537300	      0.70889082	     12.72836067	      0.22215180	     19.03819469	     -0.77781755	     -7.49999987	    -14.67746115	     -0.35039641	      3.61085994	     -0.77039723	    -13.81042909	      0.86536774	     25.33741213	     94.45373875	     19.75324206	    -16.30173056	     19.59949810	     28.87968705	     89.24735621
     29.83333330	      4.15025823	     -0.95966044	     -1.52034295	      0.75031776	      1.03276693	      0.70824358	     16.39850688	      0.56960534	     -0.98469533	      9.23429606	      0.16116887	     -1.49147634	     -2.39477654	     -7.49999987	    -15.21489294	      0.29515665	      0.11377574	     13.95389381	      0.24354139	     19.20323538	     -0.47938092	     -7.49999987	    -14.72871116	      0.43371690	      3.49772017	      0.21909025	    -14.28712330	      2.42752371	     24.93208294	     94.57450197	     18.83848825	    -15.90950518	     18.59047458	     28.88319051	     89.73834241
     29.85000000	      4.18623916	     -1.45573387	     -1.66333795	      0.75266498	      1.03462656	      0.71159653	     16.07830909	      1.24282452	     -0.68310613	     10.51895351	      0.18359037	     -1.95164941	     -3.26454377	     -7.49999987	    -15.22198774	     -0.41111135	     -0.44206397	     15.76398549	      0.27513345	     19.08297210	     -0.46753312	     -7.49999987	    -14.63678859	      1.28746632	      3.42653039	      1.39826519	    -14.63366574	      4.02138186	     23.91124599	     94.40914347	     17.71720574	    -15.38382379	     17.07482607	     28.71974753	     90.35392508
     29.86666670	      4.34411757	     -2.09156547	     -1.84562271	      0.75839404	      1.03681656	      0.71635783	     15.50874638	      2.06480214	     -0.44956357	     11.72759668	      0.20468518	     -1.78420324	     -3.70495160	     -7.49999987	    -15.14093674	     -1.34627840	     -0.99969179	     18.15858154	      0.31692704	     18.37264247	     -0.72800688	     -7.49999987	    -14.78316961	      2.24459486	      3.87605171	      1.82001311	    -14.91074725	      4.01067497	     23.90355166	     94.42303410	     16.88105420	    -14.83079605	     17.13130280	     28.38562041	     90.41307571
     29.88333330	      4.08975004	     -2.90115452	     -1.85125120	      0.76578976	      1.03763353	      0.72170326	     15.17516177	      3.16885646	      0.19060554	     12.77539134	      0.22297264	     -1.56675833	     -4.97059684	     -7.49999987	    -14.21494742	     -2.73932866	     -1.59278182	     21.57662388	      0.37658313	     17.94924261	     -0.19067004	     -7.49999987	    -14.23548721	      3.39156283	      4.06691149	      2.17657129	    -15.08056131	      4.48823569	     23.40204973	     94.49549350	     15.81194158	    -14.06477468	     16.62124727	     27.13900791	     90.47478150
     29.90000000	      4.04313216	     -3.87844246	     -1.97514535	      0.77074519	      1.03821104	      0.72713312	     14.54409786	      4.50859452	      0.70223746	     13.90801678	      0.24274069	     -0.38368255	     -5.64173586	     -7.49999987	    -13.23369525	     -4.40815231	     -2.23695404	     25.70017759	      0.44855272	     16.51240990	     -0.11001459	     -7.49999987	    -13.83184935	      4.68117089	      3.90212156	      3.50597204	    -15.24249929	      6.75817556	     21.48214611	     92.88292020	     14.41631324	    -13.39381536	     15.60886694	     25.72922407	     88.83242212
     29.91666670	      4.17179529	     -5.04189664	     -1.95886072	      0.77031054	      1.04036403	      0.73229268	     13.52610070	      6.09073840	      1.19286020	     14.82614070	      0.25876497	      1.13479813	     -6.58690901	     -7.49999987	    -11.70351764	     -6.49931335	     -2.75371581	     31.15331850	      0.54372798	     14.22850851	     -0.15561160	     -7.49999987	    -13.79966473	      6.15406018	      3.83136236	      4.34757916	    -15.71826903	      8.87622929	     21.14024766	     92.95218972	     13.06328438	    -12.95533278	     15.01731521	     24.92820084	     89.33408780
     29.93333330	      4.33629340	     -6.20155890	     -1.82868040	      0.76512220	      1.04173675	      0.73719347	     12.36763446	      7.65977509	      1.22701109	     15.56625142	      0.27168234	      3.18627911	     -6.90887850	     -7.49999987	     -9.29114748	     -8.76338412	     -2.88809490	     37.84455954	      0.66051217	     10.74261912	     -0.77784305	     -7.49999987	    -13.89695976	      7.61518262	      3.15794263	      5.99587914	    -16.00070814	     11.13956954	     20.39150380	     95.33403652	     11.29775251	    -12.49930081	     11.70277307	     24.59019395	     94.51856285
     29.95000000	      4.67568087	     -7.23625852	     -1.66158216	      0.75847012	      1.04238732	      0.74124878	     10.89797393	      9.07731240	      1.16167721	     15.88936740	      0.27732178	      4.94043012	     -7.25974257	     -7.49999987	     -6.58682834	    -10.81378925	     -2.45712919	     44.68238402	      0.77985472	      7.24625713	     -1.90446652	     -7.49999987	    -14.38116835	      8.78121979	      3.54326901	      6.58232664	    -16.45020332	     11.63179159	     21.09602871	     94.22767001	     10.68255336	    -12.07577024	     12.09802098	     23.78000519	     93.60664858
     29.96666670	      4.65194361	     -7.98769950	     -1.67820527	      0.75397774	      1.04161678	      0.74378615	      9.79923395	     10.14602605	      1.00140531	     15.98512327	      0.27899303	      6.49641975	     -7.10305771	     -7.49999987	     -3.28711894	    -12.29753652	     -1.64305239	     51.10343527	      0.89192320	      4.64113882	     -3.54024712	     -7.49999987	    -14.47526052	      9.59687360	      4.18506201	      7.16455085	    -17.10467347	     13.14582163	     21.65004945	     94.05528725	     10.57303246	    -11.62504478	     13.33186187	     22.08015884	     94.09362830
     29.98333330	      4.75614260	     -8.38307962	     -1.65019328	      0.75235115	      1.04150773	      0.74468756	      8.45376404	     10.77398853	      0.93845841	     15.73691727	      0.27466102	      7.55690635	     -6.90197353	     -7.49999987	      0.00099670	    -13.05077470	     -0.51683470	     56.66365229	      0.98896730	      3.40838141	     -5.17825177	     -7.49999987	    -14.97272191	     10.04684411	      4.52070948	      7.58181593	    -17.62345238	     13.47766694	     23.06701877	     94.02775808	     10.11959593	    -11.48604544	     14.02051331	     21.53236321	     94.57715374
